<?xml version="1.0" standalone="no"?>
<!DOCTYPE svg PUBLIC "-//W3C//DTD SVG 20010904//EN"
 "http://www.w3.org/TR/2001/REC-SVG-20010904/DTD/svg10.dtd">
<svg version="1.0" xmlns="http://www.w3.org/2000/svg"
 width="300.000000pt" height="300.000000pt" viewBox="0 0 300.000000 300.000000"
 preserveAspectRatio="xMidYMid meet">
<metadata>
Created by potrace 1.10, written by Peter Selinger 2001-2011
</metadata>
<g transform="translate(0.000000,300.000000) scale(0.100000,-0.100000)"
fill="#000000" stroke="none">
<path d="M0 1500 l0 -1500 1500 0 1500 0 0 1500 0 1500 -1500 0 -1500 0 0
-1500z m1167 818 c40 -45 263 -388 263 -406 0 -40 -15 -42 -265 -42 -178 0
-245 3 -257 13 -19 15 -78 102 -78 115 0 6 -4 12 -8 14 -8 3 -160 227 -181
266 -11 20 -10 27 5 43 16 18 33 19 259 19 238 0 242 0 262 -22z m737 2 c113
-29 190 -73 276 -160 126 -125 180 -254 180 -430 -1 -119 -11 -164 -62 -269
-54 -114 -160 -221 -270 -276 l-77 -37 142 -212 c77 -116 142 -220 145 -232 8
-42 -12 -45 -274 -42 l-249 3 -52 75 c-29 41 -52 80 -53 87 0 6 -4 13 -9 15
-10 4 -471 696 -471 708 0 5 7 16 16 24 13 14 57 16 325 16 346 0 371 4 409
65 26 41 26 110 1 151 -29 47 -75 64 -178 64 -80 0 -92 2 -110 23 -22 24 -163
233 -163 242 0 2 -8 14 -17 25 -10 11 -35 48 -55 82 -36 58 -37 63 -21 80 15
16 36 18 253 18 203 0 248 -3 314 -20z"/>
<path d="M787 2105 l136 -205 249 0 249 0 -138 205 -138 204 -248 1 -247 0
137 -205z"/>
<path d="M1352 2301 c2 -5 62 -97 133 -205 l130 -196 98 0 c112 0 141 -11 183
-66 59 -76 39 -188 -43 -244 l-36 -25 -333 -3 -333 -3 290 -434 289 -435 245
0 c135 0 245 2 245 3 0 2 -72 110 -159 241 -89 132 -154 239 -148 240 208 59
368 231 413 446 62 296 -137 604 -437 675 -48 11 -124 15 -302 15 -135 0 -237
-4 -235 -9z"/>
</g>
</svg>
