<?xml version="1.0" standalone="no"?>
<!DOCTYPE svg PUBLIC "-//W3C//DTD SVG 20010904//EN"
 "http://www.w3.org/TR/2001/REC-SVG-20010904/DTD/svg10.dtd">
<svg version="1.0" xmlns="http://www.w3.org/2000/svg"
 width="300.000000pt" height="300.000000pt" viewBox="0 0 300.000000 300.000000"
 preserveAspectRatio="xMidYMid meet">
<metadata>
Created by potrace 1.10, written by Peter Selinger 2001-2011
</metadata>
<g transform="translate(0.000000,300.000000) scale(0.100000,-0.100000)"
fill="#000000" stroke="none">
<path d="M0 1500 l0 -1500 1500 0 1500 0 0 1500 0 1500 -1500 0 -1500 0 0
-1500z m1283 600 c70 -104 127 -192 127 -195 0 -3 -107 -5 -237 -5 l-238 0
-110 166 c-60 92 -118 179 -128 195 l-19 29 239 0 240 0 126 -190z m617 179
c64 -15 158 -63 219 -113 225 -185 273 -511 110 -755 -66 -99 -151 -166 -274
-216 l-54 -22 155 -231 154 -232 -242 0 -243 0 -277 419 c-153 231 -278 422
-278 425 0 3 142 6 317 6 l316 0 43 25 c95 56 110 181 32 262 -40 41 -80 53
-183 53 l-80 0 -110 166 c-60 92 -118 179 -128 195 l-19 29 249 0 c136 0 268
-5 293 -11z"/>
</g>
</svg>
