<?xml version="1.0" standalone="no"?>
<!DOCTYPE svg PUBLIC "-//W3C//DTD SVG 20010904//EN"
 "http://www.w3.org/TR/2001/REC-SVG-20010904/DTD/svg10.dtd">
<svg version="1.0" xmlns="http://www.w3.org/2000/svg"
 width="300.000000pt" height="300.000000pt" viewBox="0 0 300.000000 300.000000"
 preserveAspectRatio="xMidYMid meet">
<metadata>
Created by potrace 1.10, written by Peter Selinger 2001-2011
</metadata>
<g transform="translate(0.000000,300.000000) scale(0.100000,-0.100000)"
fill="#000000" stroke="none">
<path d="M670 2296 c0 -3 15 -25 33 -49 17 -23 77 -111 132 -195 l100 -152
241 0 241 0 -130 195 -131 195 -220 0 c-122 0 -231 3 -243 6 -13 4 -23 4 -23
0z m466 -54 c14 -9 194 -281 194 -293 0 -5 -78 -9 -183 -9 -163 0 -186 2 -199
18 -22 24 -177 258 -184 277 -5 13 16 15 177 15 101 0 189 -4 195 -8z"/>
<path d="M1363 2278 c7 -9 66 -98 132 -197 l120 -181 88 0 c103 0 140 -13 184
-63 71 -81 47 -208 -47 -258 -32 -17 -62 -19 -356 -19 l-320 0 280 -424 281
-425 243 -3 c133 -2 242 -2 242 0 0 1 -69 105 -152 230 -172 256 -164 242
-147 242 29 0 178 82 226 125 205 181 249 496 99 728 -63 100 -164 182 -277
228 -56 23 -68 23 -486 32 -113 2 -121 1 -110 -15z m527 -39 c165 -38 318
-182 371 -348 30 -95 30 -233 0 -323 -47 -141 -145 -251 -283 -318 -81 -40
-108 -61 -108 -86 0 -7 55 -95 122 -196 66 -101 123 -191 126 -201 4 -16 -8
-17 -184 -15 l-189 3 -242 360 c-210 313 -257 388 -250 397 1 1 131 4 289 7
l286 6 44 30 c61 42 101 123 94 187 -8 78 -50 139 -121 176 -17 9 -69 18 -120
21 l-90 6 -97 145 c-54 79 -98 148 -98 152 0 12 398 9 450 -3z"/>
</g>
</svg>
