<?xml version="1.0" standalone="no"?>
<!DOCTYPE svg PUBLIC "-//W3C//DTD SVG 20010904//EN"
 "http://www.w3.org/TR/2001/REC-SVG-20010904/DTD/svg10.dtd">
<svg version="1.0" xmlns="http://www.w3.org/2000/svg"
 width="300.000000pt" height="300.000000pt" viewBox="0 0 300.000000 300.000000"
 preserveAspectRatio="xMidYMid meet">
<metadata>
Created by potrace 1.10, written by Peter Selinger 2001-2011
</metadata>
<g transform="translate(0.000000,300.000000) scale(0.100000,-0.100000)"
fill="#000000" stroke="none">
<path d="M697 2261 c10 -16 68 -103 128 -195 l110 -166 238 0 c130 0 237 2
237 5 0 3 -57 91 -127 195 l-126 190 -240 0 -239 0 19 -29z"/>
<path d="M1377 2261 c10 -16 68 -103 128 -195 l110 -166 80 0 c44 0 96 -5 115
-10 65 -18 120 -95 120 -169 0 -46 -40 -110 -84 -136 l-43 -25 -316 0 c-175 0
-317 -3 -317 -6 0 -3 125 -194 278 -425 l277 -419 243 0 242 0 -154 232 -155
231 54 22 c123 50 208 117 274 216 192 287 87 675 -223 828 -93 46 -132 50
-399 51 l-249 0 19 -29z"/>
</g>
</svg>
